<?xml version="1.0" encoding="UTF-8" standalone="no"?>
<svg width="50px" height="50px" viewBox="0 0 50 50" version="1.1" xmlns="http://www.w3.org/2000/svg" xmlns:xlink="http://www.w3.org/1999/xlink" xmlns:sketch="http://www.bohemiancoding.com/sketch/ns">
    <!-- Generator: Sketch 3.3.3 (12081) - http://www.bohemiancoding.com/sketch -->
    <title>menu-logo</title>
    <desc>Created with Sketch.</desc>
    <defs></defs>
    <g id="Page-1" stroke="none" stroke-width="1" fill="none" fill-rule="evenodd" sketch:type="MSPage">
        <g id="menu-logo" sketch:type="MSArtboardGroup">
            <rect id="bg" fill-opacity="0" fill="#D8D8D8" sketch:type="MSShapeGroup" x="0" y="0" width="50" height="50"></rect>
            <path d="M17.7708157,13.2979111 L14.3688466,9.89594203 C14.055704,9.58279942 13.5479996,9.58279942 13.234857,9.89594203 C12.9217143,10.2090846 12.9217143,10.7167891 13.234857,11.0299317 L16.636826,14.4319008 C16.9499686,14.7450434 17.4576731,14.7450434 17.7708157,14.4319008 C18.0839583,14.1187582 18.0839583,13.6110537 17.7708157,13.2979111 Z M25.3766057,11.0299317 L25.3766057,6.21882092 C25.3766057,5.7759704 25.0176044,5.41696912 24.5747539,5.41696912 C24.1319033,5.41696912 23.7729021,5.7759704 23.7729021,6.21882092 L23.7729021,11.0299317 C23.7729021,11.4727822 24.1319033,11.8317835 24.5747539,11.8317835 C25.0176044,11.8317835 25.3766057,11.4727822 25.3766057,11.0299317 Z M33.363174,14.1484034 L36.765143,10.7464343 C37.0782857,10.4332917 37.0782857,9.92558721 36.765143,9.61244461 C36.4520004,9.299302 35.944296,9.299302 35.6311534,9.61244461 L32.2291843,13.0144137 C31.9160417,13.3275563 31.9160417,13.8352608 32.2291843,14.1484034 C32.5423269,14.461546 33.0500314,14.461546 33.363174,14.1484034 Z M25.0781804,44.5830309 C29.7327269,38.1049952 36.1485465,33.57904 36.1485465,27.1369627 C36.1485465,20.7261575 31.2700802,15.7851467 25.0781806,15.7851467 C18.9175532,15.7851467 14.0078146,20.6636131 14.0078146,27.1369627 C14.0078146,33.6728567 20.2687894,38.1049952 25.0781804,44.5830309 Z M25.0781806,17.2862133 C30.3631858,17.2862133 34.4911188,21.507963 34.4911188,27.1369627 C34.4911188,32.8285068 30.3631858,36.987712 25.0781806,36.987712 C19.7619031,36.987712 15.6652423,32.8285068 15.6652423,27.1369627 C15.6652423,21.507963 19.7619031,17.2862133 25.0781806,17.2862133 Z" id="Logo" fill-opacity="0.87" fill="#6FCDEB" sketch:type="MSShapeGroup"></path>
        </g>
    </g>
</svg>