<?xml version="1.0" encoding="UTF-8" standalone="no"?>
<svg width="50px" height="50px" viewBox="0 0 50 50" version="1.1" xmlns="http://www.w3.org/2000/svg" xmlns:xlink="http://www.w3.org/1999/xlink" xmlns:sketch="http://www.bohemiancoding.com/sketch/ns">
    <!-- Generator: Sketch 3.3.3 (12081) - http://www.bohemiancoding.com/sketch -->
    <title>menu-locations</title>
    <desc>Created with Sketch.</desc>
    <defs></defs>
    <g id="Page-1" stroke="none" stroke-width="1" fill="none" fill-rule="evenodd" sketch:type="MSPage">
        <g id="menu-locations" sketch:type="MSArtboardGroup">
            <rect id="bg" fill-opacity="0" fill="#D8D8D8" sketch:type="MSShapeGroup" x="0" y="0" width="50" height="50"></rect>
            <g id="Shape-+-Logo" sketch:type="MSLayerGroup" transform="translate(12.000000, 5.000000)" fill-opacity="0.87" fill="#FFFFFF">
                <path d="M19.7512773,26.8643992 C23.3821901,27.6600834 25.8,29.1237813 25.8,31 C25.8,33.8890599 20.0671798,35.8 13,35.8 C5.93282016,35.8 0.2,33.8890599 0.2,31 C0.2,29.142419 2.57001297,27.6892039 6.14087795,26.8883089 L7.32677681,28.2933767 C4.01900726,28.9023573 1.8,29.9825144 1.8,31 C1.8,32.5292181 6.81234584,34.2 13,34.2 C19.1876542,34.2 24.2,32.5292181 24.2,31 C24.2,29.9734605 21.9413262,28.8831292 18.5846648,28.2772323 L19.7512773,26.8643992 Z" id="Shape" sketch:type="MSShapeGroup"></path>
                <path d="M12.9999998,32.2061864 C18.0454119,25.1841577 25,20.2781354 25,13.2950845 C25,6.34593197 19.7118644,0.989999771 13,0.989999771 C6.3220339,0.989999771 1,6.27813536 1,13.2950845 C1,20.3798303 7.78674017,25.1841577 12.9999998,32.2061864 Z M13,2.61711842 C18.7288136,2.61711842 23.2033898,7.1933896 23.2033898,13.2950845 C23.2033898,19.464576 18.7288136,23.9730506 13,23.9730506 C7.23728814,23.9730506 2.79661017,19.464576 2.79661017,13.2950845 C2.79661017,7.1933896 7.23728814,2.61711842 13,2.61711842 Z" id="Logo" sketch:type="MSShapeGroup"></path>
            </g>
        </g>
    </g>
</svg>