<?xml version="1.0" encoding="UTF-8" standalone="no"?>
<svg width="50px" height="50px" viewBox="0 0 50 50" version="1.1" xmlns="http://www.w3.org/2000/svg" xmlns:xlink="http://www.w3.org/1999/xlink" xmlns:sketch="http://www.bohemiancoding.com/sketch/ns">
    <!-- Generator: Sketch 3.3.3 (12081) - http://www.bohemiancoding.com/sketch -->
    <title>menu-settings</title>
    <desc>Created with Sketch.</desc>
    <defs></defs>
    <g id="Page-1" stroke="none" stroke-width="1" fill="none" fill-rule="evenodd" sketch:type="MSPage">
        <g id="menu-settings" sketch:type="MSArtboardGroup">
            <rect id="bg" fill-opacity="0" fill="#D8D8D8" sketch:type="MSShapeGroup" x="0" y="0" width="50" height="50"></rect>
            <path d="M17.4372298,21.1241978 L32.5627702,21.1241978 C36.1203127,21.1241978 38.9985394,18.3962916 38.9985394,14.9656161 C38.9985394,11.5264719 36.1110086,8.75 32.5627702,8.75 L17.4372298,8.75 C13.8889914,8.75 11.0014606,11.5264719 11.0014606,14.9656161 C11.0014606,18.3962916 13.8796873,21.1241978 17.4372298,21.1241978 L17.4372298,21.1241978 Z M17.4372298,19.7006175 C14.6493397,19.7006175 12.4250409,17.5924868 12.4250409,14.9656161 C12.4250409,12.3254566 14.6629922,10.1735803 17.4372298,10.1735803 L32.5627702,10.1735803 C35.3370078,10.1735803 37.5749591,12.3254566 37.5749591,14.9656161 C37.5749591,17.5924868 35.3506603,19.7006175 32.5627702,19.7006175 L17.4372298,19.7006175 Z M32.5924282,12.527963 C33.9980018,12.527963 35.1264011,13.6129623 35.1264011,14.9370989 C35.1264011,16.2612656 33.998021,17.3462348 32.5924282,17.3462348 C31.1868353,17.3462348 30.0584553,16.2612656 30.0584553,14.9370989 C30.0584553,13.6129623 31.1868545,12.527963 32.5924282,12.527963 Z M32.5924282,11.1043828 C30.4128537,11.1043828 28.634875,12.8139777 28.634875,14.9370989 C28.634875,17.0602538 30.4128378,18.769815 32.5924282,18.769815 C34.7720185,18.769815 36.5499813,17.0602538 36.5499813,14.9370989 C36.5499813,12.8139777 34.7720026,11.1043828 32.5924282,11.1043828 Z M32.5627702,22.9858028 L17.4372298,22.9858028 C13.8796873,22.9858028 11.0014606,25.713709 11.0014606,29.1443845 C11.0014606,32.5835287 13.8889914,35.3600006 17.4372298,35.3600006 L32.5627702,35.3600006 C36.1110086,35.3600006 38.9985394,32.5835287 38.9985394,29.1443845 C38.9985394,25.713709 36.1203127,22.9858028 32.5627702,22.9858028 Z M32.5627702,24.4093831 C35.3506603,24.4093831 37.5749591,26.5175139 37.5749591,29.1443845 C37.5749591,31.784544 35.3370078,33.9364203 32.5627702,33.9364203 L17.4372298,33.9364203 C14.6629922,33.9364203 12.4250409,31.784544 12.4250409,29.1443845 C12.4250409,26.5175139 14.6493397,24.4093831 17.4372298,24.4093831 L32.5627702,24.4093831 Z M17.4075718,31.5820376 C16.0019982,31.5820376 14.8735989,30.4970383 14.8735989,29.1729017 C14.8735989,27.848735 16.001979,26.7637658 17.4075718,26.7637658 C18.8131647,26.7637658 19.9415447,27.848735 19.9415447,29.1729017 C19.9415447,30.4970383 18.8131455,31.5820376 17.4075718,31.5820376 Z M17.4075718,33.0056178 C19.5871463,33.0056178 21.365125,31.2960229 21.365125,29.1729017 C21.365125,27.0497468 19.5871622,25.3401856 17.4075718,25.3401856 C15.2279815,25.3401856 13.4500187,27.0497468 13.4500187,29.1729017 C13.4500187,31.2960229 15.2279974,33.0056178 17.4075718,33.0056178 L17.4075718,33.0056178 Z" id="Shape" fill-opacity="0.87" fill="#FFFFFF" sketch:type="MSShapeGroup"></path>
        </g>
    </g>
</svg>