<?xml version="1.0" encoding="UTF-8" standalone="no"?>
<svg width="50px" height="50px" viewBox="0 0 50 50" version="1.1" xmlns="http://www.w3.org/2000/svg" xmlns:xlink="http://www.w3.org/1999/xlink" xmlns:sketch="http://www.bohemiancoding.com/sketch/ns">
    <!-- Generator: Sketch 3.2.2 (9983) - http://www.bohemiancoding.com/sketch -->
    <title>menu-realtor</title>
    <desc>Created with Sketch.</desc>
    <defs></defs>
    <g id="Page-1" stroke="none" stroke-width="1" fill="none" fill-rule="evenodd" sketch:type="MSPage">
        <g id="menu-realtor" sketch:type="MSArtboardGroup">
            <rect id="bg" fill-opacity="0" fill="#D8D8D8" sketch:type="MSShapeGroup" x="0" y="0" width="50" height="50"></rect>
            <path d="M14.4606657,29.7884615 C14.5645866,29.9615385 14.6223204,30.1576923 14.6223204,30.3769231 L13.9237412,34 L17.168382,32.725 C17.3242633,32.6615385 17.4916914,32.6269231 17.6706662,32.6269231 C17.8323209,32.6269231 17.9882023,32.6557692 18.1325368,32.7076923 L18.1440836,32.7076923 C18.1671771,32.7192308 18.1902706,32.725 18.2133642,32.7365385 C19.2410262,33.1576923 20.3726091,33.3942308 21.5561525,33.3942308 C24.2292285,33.3942308 26.6136353,32.2115385 28.1839953,30.3596154 C27.3699484,30.5673077 26.5154878,30.6884615 25.6379337,30.6884615 C20.1012602,30.6884615 15.6095688,26.3615385 15.6095688,21.025 C15.6095688,20.3442308 15.6846227,19.6865385 15.8231839,19.0461538 C14.0911692,20.5519231 13,22.7269231 13,25.15 C13,26.7884615 13.4965109,28.3346154 14.3567448,29.6211538 C14.3913851,29.6673077 14.4260254,29.7307692 14.4606657,29.7884615 Z M26.9889052,10 C22.1565842,10 18.1209901,13.3 17.1741554,17.6846154 C17.0355942,18.325 16.9605402,18.9826923 16.9605402,19.6634615 C16.9605402,25 21.4464582,29.3269231 26.9889052,29.3269231 C27.8722327,29.3269231 28.7209199,29.2057692 29.5349668,28.9980769 C30.0026107,28.8769231 30.4644813,28.7384615 30.9090317,28.5596154 C30.9378987,28.5480769 30.9609922,28.5365385 30.9898591,28.525 C30.9956325,28.525 31.0014059,28.525 31.0014059,28.5192308 C31.1688339,28.4557692 31.3535822,28.4211538 31.5383304,28.4211538 C31.7461722,28.4211538 31.9424672,28.4615385 32.121442,28.5365385 L36.0819822,30.025 L35.1005073,25.7673077 C35.1005073,25.5134615 35.1697878,25.2711538 35.2910289,25.0634615 C35.3256692,25 35.3718562,24.9423077 35.4122699,24.8846154 C36.4168384,23.3788462 36.99995,21.5846154 36.99995,19.6634615 C37.0172702,14.3269231 32.5313522,10 26.9889052,10 Z" id="Shape" fill-opacity="0.87" fill="#FFFFFF" sketch:type="MSShapeGroup"></path>
        </g>
    </g>
</svg>