<?xml version="1.0" encoding="UTF-8" standalone="no"?>
<svg width="50px" height="50px" viewBox="0 0 50 50" version="1.1" xmlns="http://www.w3.org/2000/svg" xmlns:xlink="http://www.w3.org/1999/xlink" xmlns:sketch="http://www.bohemiancoding.com/sketch/ns">
    <!-- Generator: Sketch 3.3.2 (12043) - http://www.bohemiancoding.com/sketch -->
    <title>nav-menu</title>
    <desc>Created with Sketch.</desc>
    <defs></defs>
    <g id="Page-1" stroke="none" stroke-width="1" fill="none" fill-rule="evenodd" sketch:type="MSPage">
        <g id="nav-menu" sketch:type="MSArtboardGroup">
            <rect id="bg" fill-opacity="0" fill="#D8D8D8" sketch:type="MSShapeGroup" x="0" y="0" width="50" height="50"></rect>
            <path d="M15,18.9989566 C15,18.4472481 15.4553056,18 15.9918031,18 L34.0081969,18 C34.5559546,18 35,18.4426603 35,18.9989566 L35,20.0010434 C35,20.5527519 34.5446944,21 34.0081969,21 L15.9918031,21 C15.4440454,21 15,20.5573397 15,20.0010434 L15,18.9989566 Z M15,29.9989566 C15,29.4472481 15.4553056,29 15.9918031,29 L34.0081969,29 C34.5559546,29 35,29.4426603 35,29.9989566 L35,31.0010434 C35,31.5527519 34.5446944,32 34.0081969,32 L15.9918031,32 C15.4440454,32 15,31.5573397 15,31.0010434 L15,29.9989566 Z" id="Rectangle-22" fill="#373737" sketch:type="MSShapeGroup"></path>
        </g>
    </g>
</svg>