<?xml version="1.0" encoding="UTF-8" standalone="no"?>
<svg width="50px" height="50px" viewBox="0 0 50 50" version="1.1" xmlns="http://www.w3.org/2000/svg" xmlns:xlink="http://www.w3.org/1999/xlink" xmlns:sketch="http://www.bohemiancoding.com/sketch/ns">
    <!-- Generator: Sketch 3.3.3 (12081) - http://www.bohemiancoding.com/sketch -->
    <title>nav-logo</title>
    <desc>Created with Sketch.</desc>
    <defs></defs>
    <g id="Page-1" stroke="none" stroke-width="1" fill="none" fill-rule="evenodd" sketch:type="MSPage">
        <g id="nav-logo" sketch:type="MSArtboardGroup">
            <rect id="bg" fill-opacity="0" fill="#D8D8D8" sketch:type="MSShapeGroup" x="0" y="0" width="50" height="50"></rect>
            <path d="M19.4626669,18.0365594 L16.8568632,15.4307556 C16.6170055,15.190898 16.2281195,15.190898 15.9882619,15.4307556 C15.7484043,15.6706133 15.7484043,16.0594993 15.9882619,16.2993569 L18.5940657,18.9051607 C18.8339233,19.1450183 19.2228093,19.1450183 19.4626669,18.9051607 C19.7025246,18.6653031 19.7025246,18.276417 19.4626669,18.0365594 Z M25.2884684,16.2993569 L25.2884684,12.6141938 C25.2884684,12.274984 25.0134844,12 24.6742745,12 C24.3350646,12 24.0600807,12.274984 24.0600807,12.6141938 L24.0600807,16.2993569 C24.0600807,16.6385668 24.3350646,16.9135507 24.6742745,16.9135507 C25.0134844,16.9135507 25.2884684,16.6385668 25.2884684,16.2993569 Z M31.4059343,18.6880104 L34.0117381,16.0822066 C34.2515957,15.842349 34.2515957,15.4534629 34.0117381,15.2136053 C33.7718805,14.9737477 33.3829945,14.9737477 33.1431368,15.2136053 L30.5373331,17.8194091 C30.2974754,18.0592667 30.2974754,18.4481528 30.5373331,18.6880104 C30.7771907,18.927868 31.1660767,18.927868 31.4059343,18.6880104 Z M25.0598837,42 C28.6251234,37.0380237 33.5394441,33.5712811 33.5394441,28.6368478 C33.5394441,23.726368 29.8026888,19.9417055 25.0598839,19.9417055 C20.3410326,19.9417055 16.5803237,23.6784609 16.5803237,28.6368478 C16.5803237,33.6431418 21.376038,37.0380237 25.0598837,42 Z M25.0598839,21.0914764 C29.1080355,21.0914764 32.2699054,24.325207 32.2699054,28.6368478 C32.2699054,32.9963957 29.1080355,36.1822191 25.0598839,36.1822191 C20.9877787,36.1822191 17.8498624,32.9963957 17.8498624,28.6368478 C17.8498624,24.325207 20.9877787,21.0914764 25.0598839,21.0914764 Z" id="Logo" fill-opacity="0.87" fill="#6FCDEB" sketch:type="MSShapeGroup"></path>
        </g>
    </g>
</svg>