<?xml version="1.0" encoding="UTF-8" standalone="no"?>
<svg width="50px" height="50px" viewBox="0 0 50 50" version="1.1" xmlns="http://www.w3.org/2000/svg" xmlns:xlink="http://www.w3.org/1999/xlink" xmlns:sketch="http://www.bohemiancoding.com/sketch/ns">
    <!-- Generator: Sketch 3.3.3 (12081) - http://www.bohemiancoding.com/sketch -->
    <title>nav-options</title>
    <desc>Created with Sketch.</desc>
    <defs></defs>
    <g id="Page-1" stroke="none" stroke-width="1" fill="none" fill-rule="evenodd" sketch:type="MSPage">
        <g id="nav-options" sketch:type="MSArtboardGroup">
            <rect id="bg" fill-opacity="0" fill="#D8D8D8" sketch:type="MSShapeGroup" x="0" y="0" width="50" height="50"></rect>
            <path d="M25,19 C26.1045695,19 27,18.1045695 27,17 C27,15.8954305 26.1045695,15 25,15 C23.8954305,15 23,15.8954305 23,17 C23,18.1045695 23.8954305,19 25,19 Z M25,27 C26.1045695,27 27,26.1045695 27,25 C27,23.8954305 26.1045695,23 25,23 C23.8954305,23 23,23.8954305 23,25 C23,26.1045695 23.8954305,27 25,27 Z M25,35 C26.1045695,35 27,34.1045695 27,33 C27,31.8954305 26.1045695,31 25,31 C23.8954305,31 23,31.8954305 23,33 C23,34.1045695 23.8954305,35 25,35 Z" id="Oval-15" fill="#373737" sketch:type="MSShapeGroup"></path>
        </g>
    </g>
</svg>